<svg xmlns="http://www.w3.org/2000/svg" viewBox="0 0 800 400" fill="currentColor">
  <!-- Jinete y caballo silueta -->
  <path d="M650 380 L620 320 Q600 280 580 260 L560 240 Q540 220 520 210 L480 200 Q460 195 440 200 L420 210 Q400 220 380 240 L360 260 Q340 290 330 320 L310 380 M480 200 Q490 180 510 160 L540 140 Q560 130 580 140 L600 160 Q620 180 610 200 L600 220 Q580 240 560 240 M580 140 Q600 120 620 110 L650 100 Q680 95 700 110 L720 130 Q740 160 730 190 L710 220 Q680 250 650 260 L620 270 M540 140 L530 120 Q520 100 530 80 L550 60 Q580 50 600 70 L610 90 Q615 110 600 120"/>
</svg>
